<svg width="27" height="21" viewBox="0 0 27 21" fill="none" xmlns="http://www.w3.org/2000/svg">
<path d="M9.125 13.8281C7.60156 13.8281 6.23438 13.5156 5.02344 12.9297C4.71094 13.0859 4.39844 13.2031 4.04688 13.3594C3.30469 13.6328 2.44531 13.8281 1.625 13.8281C1.35156 13.8281 1.11719 13.6719 1 13.3984C0.921875 13.1641 1.03906 12.8906 1.23438 12.7344V12.6953H1.27344C1.3125 12.6562 1.39062 12.5781 1.46875 12.5391C1.58594 12.4219 1.78125 12.2266 1.97656 11.9922C2.17188 11.7188 2.40625 11.3672 2.52344 11.0156C1.54688 9.88281 1 8.47656 1 6.95312C1 3.16406 4.63281 0.078125 9.125 0.078125C13.5781 0.078125 17.25 3.16406 17.25 6.95312C17.25 10.7812 13.5781 13.8281 9.125 13.8281ZM18.5 6.95312H18.4609C18.4609 6.75781 18.4609 6.5625 18.4609 6.36719C22.6797 6.60156 25.9609 9.60938 25.9609 13.2031C25.9609 14.7266 25.4141 16.1328 24.4375 17.2656C24.5547 17.6172 24.7891 17.9297 24.9844 18.2031C25.1797 18.4766 25.375 18.6328 25.4922 18.7891C25.5703 18.8281 25.6484 18.9062 25.6875 18.9062C25.6875 18.9453 25.7266 18.9453 25.7266 18.9453C25.9609 19.1406 26.0391 19.4141 25.9609 19.6484C25.8828 19.9219 25.6094 20.0781 25.375 20.0781C24.5156 20.0781 23.6562 19.8828 22.9141 19.6094C22.5625 19.4531 22.25 19.3359 21.9375 19.1797C20.7266 19.7656 19.3594 20.0781 17.875 20.0781C14.125 20.0781 10.9609 17.9688 10.0234 15.0391C14.5938 14.6484 18.5 11.3672 18.5 6.95312Z" fill="#FF2EA1"/>
</svg>
