<svg width="20" height="16" viewBox="0 0 20 16" fill="none" xmlns="http://www.w3.org/2000/svg">
<path d="M1.875 0.578125H18.125C19.1406 0.578125 20 1.4375 20 2.45312C20 3.07812 19.6875 3.625 19.2188 3.97656L10.7422 10.3438C10.2734 10.6953 9.6875 10.6953 9.21875 10.3438L0.742188 3.97656C0.273438 3.625 0 3.07812 0 2.45312C0 1.4375 0.820312 0.578125 1.875 0.578125ZM0 4.95312L8.47656 11.3594C9.375 12.0234 10.5859 12.0234 11.4844 11.3594L20 4.95312V13.0781C20 14.4844 18.8672 15.5781 17.5 15.5781H2.5C1.09375 15.5781 0 14.4844 0 13.0781V4.95312Z" fill="#FF2EA1"/>
</svg>
