<?xml version="1.0" encoding="UTF-8"?>
<svg id="Layer_1" data-name="Layer 1" xmlns="http://www.w3.org/2000/svg" xmlns:xlink="http://www.w3.org/1999/xlink" viewBox="0 0 827.52 568.51">
  <defs>
    <style>
      .cls-1 {
        fill: #f5cb86;
      }

      .cls-2 {
        fill: #e0d7e0;
      }

      .cls-3 {
        fill: #4f0088;
        stroke: #4f0088;
        stroke-linecap: round;
        stroke-linejoin: round;
        stroke-width: 50px;
      }

      .cls-4 {
        fill: #6b2ea1;
      }

      .cls-5 {
        fill: url(#linear-gradient);
      }
    </style>
    <linearGradient id="linear-gradient" x1="157.87" y1="798.84" x2="574.26" y2="69.76" gradientUnits="userSpaceOnUse">
      <stop offset="0" stop-color="#6b2ea1"/>
      <stop offset="1" stop-color="#ff2ea1"/>
    </linearGradient>
  </defs>
  <path class="cls-3" d="M747.55,405.76l-43.28-19.76-19.04-44.27c-3.88-9.01-12.72-14.85-22.53-14.88h-.08c-9.38,0-17.89,5.33-22.03,13.68-.01.02-.03.03-.04.05-2.44,3.45-3.66,2.44-2.08-1.51l-.05.05c6.58-15.46,9.92-32.84,9.92-52.01l-.86-14.05c-.73-10.9-3.95-22.58-9.83-35.7-2.26-5.03-4.88-9.64-7.85-13.83.69-.24,1.39-.47,2.08-.68l1.29-.38,1.24-.53c10.33-4.44,16.75-13.77,16.75-24.36,0-5.33-1.85-18.5-18.97-25.66l-1.11-.46-5.18-1.56c-10.31-3.1-23.29-4.6-39.68-4.6-27.38,0-50.17,3.28-68.74,9.95,8.84-17.79,19.01-35.91,30.51-54.33l.84-1.34.65-1.44c5.09-11.37,7.68-24.37,7.68-38.62,0-37.66-25.33-39.57-30.41-39.57h-2.07l-6.14,1.12c-8.47.99-19.66,1.49-33.27,1.5l-65.9-2.17h-.76c-16.81-.01-28.31.87-36.13,2.76-14.36,3.2-23.92,15.37-28.42,36.19-2.84,13.13-4.23,31.02-4.23,54.68,0,1.55.09,3.04.25,4.48-1.08.39-2.17.79-3.28,1.22-8.54,3.35-15.59,7.07-21.36,11.29-3.97-9.79-13.74-17.91-30.12-17.91-9.11,0-19.06,2.16-30.44,6.62-11.35,4.45-20.06,9.55-26.63,15.61-8.02,7.39-12.07,13.03-13.95,19.45-1.16,3.96-1.77,7.85-1.8,11.57l-.69,32.8v2.53c-3.63,1.31-6.83,3.3-9.47,5.84-5.96-4.4-12.77-7.59-20.36-9.52-7.86-2-14.11-3.25-19.13-3.85-4.89-.57-11.22-.85-19.34-.85-9.26,0-18.9,1.4-28.67,4.17-10.6,3.01-18.69,6.67-24.7,11.19-6.37,4.78-11.64,10.98-15.66,18.44-4.24,7.88-6.39,15.69-6.39,23.23,0,11.77,4.5,22.38,12.7,30.09-.95.84-1.88,1.7-2.8,2.57-14.86,14.18-22.4,32.86-22.4,55.52,0,6.29,1.12,13.02,3.43,20.59l.41,1.23c2.35,6.41,5.48,12.29,9.29,17.46,4.82,6.58,11.61,11.96,20.76,16.43,8.82,4.32,19.06,6.51,30.43,6.51,12.35,0,24.15-3.64,35.09-10.82,6.9,5.9,17.68,10.48,34.52,10.48,3.89,0,7.36-.1,10.49-.32-2.97,10.05-6,15.94-8.49,19.39l-2.06,2.86-4.03,12.09v3.73c0,12.98,9.69,26.12,28.21,26.12h2.67l8.09-1.9c13.27-2.69,26.83-11.37,41.43-26.53.54-.55,1.08-1.11,1.61-1.69l-.09.26v3.73c0,10.71,6.6,21.52,19.3,24.98l-1.11,1.98v5.97c0,8.59,4.31,16.5,11.54,21.15,4.14,2.66,8.85,4.01,13.59,4.01,3.54,0,7.11-.75,10.46-2.28,21.5-9.8,45.24-18.33,72.57-26.07,41.03-11.62,83.81-19.18,127.17-22.47,10.85-.82,32.68-1.2,59.9-1.03.05,0,.11,0,.16,0,4.22,0,8.25-1.13,11.75-3.12l17.89,8.17,19.05,44.27c3.88,9,12.72,14.84,22.52,14.87h.08c9.77,0,18.61-5.78,22.54-14.74l19.25-43.97,43.3-19.23c8.83-3.92,14.58-12.69,14.63-22.36.05-9.66-5.59-18.5-14.38-22.52Z"/>
  <path class="cls-4" d="M747.55,405.76l-43.28-19.76-19.04-44.27c-3.88-9.01-12.72-14.85-22.53-14.88h-.08c-9.38,0-17.89,5.33-22.03,13.68-.01.02-.03.03-.04.05-2.44,3.45-3.66,2.44-2.08-1.51l-.05.05c6.58-15.46,9.92-32.84,9.92-52.01l-.86-14.05c-.73-10.9-3.95-22.58-9.83-35.7-2.26-5.03-4.88-9.64-7.85-13.83.69-.24,1.39-.47,2.08-.68l1.29-.38,1.24-.53c10.33-4.44,16.75-13.77,16.75-24.36,0-5.33-1.85-18.5-18.97-25.66l-1.11-.46-5.18-1.56c-10.31-3.1-23.29-4.6-39.68-4.6-27.38,0-50.17,3.28-68.74,9.95,8.84-17.79,19.01-35.91,30.51-54.33l.84-1.34.65-1.44c5.09-11.37,7.68-24.37,7.68-38.62,0-37.66-25.33-39.57-30.41-39.57h-2.07l-6.14,1.12c-8.47.99-19.66,1.49-33.27,1.5l-65.9-2.17h-.76c-16.81-.01-28.31.87-36.13,2.76-14.36,3.2-23.92,15.37-28.42,36.19-2.84,13.13-4.23,31.02-4.23,54.68,0,1.55.09,3.04.25,4.48-1.08.39-2.17.79-3.28,1.22-8.54,3.35-15.59,7.07-21.36,11.29-3.97-9.79-13.74-17.91-30.12-17.91-9.11,0-19.06,2.16-30.44,6.62-11.35,4.45-20.06,9.55-26.63,15.61-8.02,7.39-12.07,13.03-13.95,19.45-1.16,3.96-1.77,7.85-1.8,11.57l-.69,32.8v2.53c-3.63,1.31-6.83,3.3-9.47,5.84-5.96-4.4-12.77-7.59-20.36-9.52-7.86-2-14.11-3.25-19.13-3.85-4.89-.57-11.22-.85-19.34-.85-9.26,0-18.9,1.4-28.67,4.17-10.6,3.01-18.69,6.67-24.7,11.19-6.37,4.78-11.64,10.98-15.66,18.44-4.24,7.88-6.39,15.69-6.39,23.23,0,11.77,4.5,22.38,12.7,30.09-.95.84-1.88,1.7-2.8,2.57-14.86,14.18-22.4,32.86-22.4,55.52,0,6.29,1.12,13.02,3.43,20.59l.41,1.23c2.35,6.41,5.48,12.29,9.29,17.46,4.82,6.58,11.61,11.96,20.76,16.43,8.82,4.32,19.06,6.51,30.43,6.51,12.35,0,24.15-3.64,35.09-10.82,6.9,5.9,17.68,10.48,34.52,10.48,3.89,0,7.36-.1,10.49-.32-2.97,10.05-6,15.94-8.49,19.39l-2.06,2.86-4.03,12.09v3.73c0,12.98,9.69,26.12,28.21,26.12h2.67l8.09-1.9c13.27-2.69,26.83-11.37,41.43-26.53.54-.55,1.08-1.11,1.61-1.69l-.09.26v3.73c0,10.71,6.6,21.52,19.3,24.98l-1.11,1.98v5.97c0,8.59,4.31,16.5,11.54,21.15,4.14,2.66,8.85,4.01,13.59,4.01,3.54,0,7.11-.75,10.46-2.28,21.5-9.8,45.24-18.33,72.57-26.07,41.03-11.62,83.81-19.18,127.17-22.47,10.85-.82,32.68-1.2,59.9-1.03.05,0,.11,0,.16,0,4.22,0,8.25-1.13,11.75-3.12l17.89,8.17,19.05,44.27c3.88,9,12.72,14.84,22.52,14.87h.08c9.77,0,18.61-5.78,22.54-14.74l19.25-43.97,43.3-19.23c8.83-3.92,14.58-12.69,14.63-22.36.05-9.66-5.59-18.5-14.38-22.52Z"/>
  <path class="cls-5" d="M418.61,63.38l66.28,2.18c15.11,0,27.47-.58,37.06-1.74l4.8-.87c4.94,0,7.41,5.52,7.41,16.57s-1.89,20.79-5.67,29.21c-51.75,82.85-77.62,159.45-77.62,229.79,0,13.67,1.09,22.39,3.27,26.16,2.18,3.78,3.27,5.82,3.27,6.1,0,5.23-8,7.85-23.98,7.85-28.49,0-42.73-5.38-42.73-16.13,0-40.12,15.92-90.4,47.75-150.87,31.83-60.46,47.75-93.02,47.75-97.67,0-2.32-1.17-3.77-3.49-4.36-9.89-.58-18.68-.87-26.38-.87s-16.35.95-25.94,2.83c-9.59,1.89-17.16,4.29-22.67,7.19-11.05,5.53-18.03,10.47-20.93,14.83l-2.18,3.05c-2.04,3.49-4.22,5.23-6.54,5.23-3.49,0-5.23-2.62-5.23-7.85,0-43.6,4.94-66.42,14.83-68.46,5.81-1.45,16.13-2.18,30.96-2.18ZM516.46,218.54c-6.99.27-12.03.47-15.12.61-3.09.14-4.64-.61-4.64-2.22s.81-3.23,2.42-4.84c17.2-15.86,46.24-23.79,87.1-23.79,13.98,0,25,1.21,33.07,3.63l4.03,1.21c3.23,1.35,4.84,2.82,4.84,4.44,0,1.35-.95,2.42-2.82,3.23-7.26,2.15-14.25,5.58-20.97,10.28-6.72,4.71-10.08,8-10.08,9.88l2.42,2.82c8.6,4.84,15.25,12.5,19.96,22.99,4.7,10.49,7.32,19.76,7.86,27.83l.81,12.5c0,26.62-7.4,48.53-22.18,65.73-14.79,17.21-34.95,25.81-60.49,25.81-12.9,0-24.07-2.29-33.47-6.86-9.41-4.57-16.33-9.74-20.77-15.53-4.44-5.78-8-12.3-10.69-19.56-3.23-9.94-4.84-20.23-4.84-30.85s1.81-21.3,5.44-32.06c3.63-10.75,7.79-18.68,12.5-23.79,4.7-5.1,10.01-9.28,15.93-12.5,7.52-4.03,13.57-6.05,18.15-6.05s6.86.94,6.86,2.82l-2.42,4.03c-5.92,6.99-10.15,16.13-12.7,27.42-2.56,11.29-3.83,21.31-3.83,30.04s1.07,17.41,3.23,26.01c2.15,8.61,4.57,14.99,7.26,19.16,2.68,4.17,5.78,7.33,9.27,9.48,5.1,3.23,10.49,4.84,16.13,4.84s11.15-2.22,16.54-6.65c5.37-4.44,9.27-10.28,11.69-17.54,4.84-13.44,7.26-27.28,7.26-41.54,0-22.58-5.71-40.06-17.14-52.42-11.43-12.36-28.3-18.55-50.61-18.55Z"/>
  <g>
    <path class="cls-2" d="M211.13,289.06l-.69,44.44c0,30.78,3.35,49.3,10.07,55.54.92.93,1.39,1.97,1.39,3.12,0,3.47-7.46,5.21-22.39,5.21s-22.86-4.39-23.78-13.19c-.23-2.08-.35-6.36-.35-12.84l1.39-55.54c0-1.62-.93-2.43-2.78-2.43-11.11,0-21.52,3.12-31.24,9.37-9.72,6.25-14.58,14.23-14.58,23.95,0,5.09,1.39,9.37,4.17,12.84,2.78,3.47,6.19,5.21,10.24,5.21s7.4-.81,10.07-2.43c2.66-1.62,4.22-2.54,4.69-2.78,3.93.47,5.9,4.57,5.9,12.32s-3.59,14.01-10.76,18.75c-7.18,4.74-14.7,7.12-22.56,7.12s-14.64-1.39-20.31-4.17c-5.67-2.78-9.78-5.9-12.32-9.37-2.55-3.47-4.63-7.4-6.25-11.8-1.62-5.32-2.43-9.95-2.43-13.89,0-16.2,5.09-29.16,15.27-38.88,10.18-9.72,23.26-16.66,39.23-20.83,21.06-4.17,32.05-7.98,32.98-11.46.69-2.54,1.04-6.82,1.04-12.84,0-12.26-6.25-18.4-18.75-18.4-5.33,0-10.07,1.68-14.23,5.03-4.17,3.36-6.25,7.58-6.25,12.67l2.08,8.33c-.47,3.94-4.63,6.25-12.5,6.94l-3.82.35c-6.94,0-12.44-1.74-16.49-5.21-4.05-3.47-6.07-8.1-6.07-13.89,0-3.7,1.21-7.81,3.64-12.32,2.43-4.51,5.49-8.16,9.2-10.94,3.7-2.78,9.43-5.26,17.18-7.46,7.75-2.2,15.21-3.3,22.39-3.3s12.72.23,16.66.69c3.93.47,9.31,1.56,16.14,3.3,6.82,1.74,12.5,5.03,17.01,9.89,4.51,4.86,6.94,10.01,7.29,15.45.35,5.44.52,13.25.52,23.43Z"/>
    <path class="cls-2" d="M277.44,306.42l1.74,69.43c0,14.58-1.91,27.48-5.73,38.71-3.82,11.22-8.5,19.61-14.06,25.17-11.34,11.8-21.3,18.51-29.85,20.13l-5.9,1.39c-3.47,0-5.21-1.04-5.21-3.12l1.74-5.21c16.89-23.38,25.34-80.77,25.34-172.19,0-8.33-.12-14.58-.35-18.75-4.86,0-9.72.35-14.58,1.04h-.35c-2.55,0-3.82-1.27-3.82-3.82l1.04-13.19c.23-2.08,1.85-3.12,4.86-3.12h12.5v-23.26l.69-32.98c0-1.62.29-3.41.87-5.38.58-1.96,3.07-4.97,7.46-9.03,4.39-4.05,10.88-7.75,19.44-11.11,8.56-3.35,15.91-5.03,22.04-5.03s9.2,1.86,9.2,5.55c0,1.39-1.04,2.55-3.13,3.47-6.71,2.08-12.21,8.04-16.49,17.88-4.28,9.84-6.42,26.56-6.42,50.16v9.72c11.8-.46,19.55-1.04,23.26-1.74,1.62,0,2.43,1.39,2.43,4.17s-1.21,6.19-3.64,10.24c-2.43,4.05-5.44,6.13-9.03,6.25-3.59.12-8.04.06-13.37-.17-.47,17.59-.69,32.52-.69,44.78Z"/>
    <path class="cls-2" d="M359.36,306.42l1.74,69.43c0,14.58-1.91,27.48-5.73,38.71-3.82,11.22-8.5,19.61-14.06,25.17-11.34,11.8-21.3,18.51-29.85,20.13l-5.9,1.39c-3.47,0-5.21-1.04-5.21-3.12l1.74-5.21c16.89-23.38,25.34-80.77,25.34-172.19,0-8.33-.12-14.58-.35-18.75-4.86,0-9.72.35-14.58,1.04h-.35c-2.55,0-3.82-1.27-3.82-3.82l1.04-13.19c.23-2.08,1.85-3.12,4.86-3.12h12.5v-23.26l.69-32.98c0-1.62.29-3.41.87-5.38.58-1.96,3.07-4.97,7.46-9.03,4.39-4.05,10.88-7.75,19.44-11.11,8.56-3.35,15.91-5.03,22.04-5.03s9.2,1.86,9.2,5.55c0,1.39-1.04,2.55-3.13,3.47-6.71,2.08-12.21,8.04-16.49,17.88-4.28,9.84-6.42,26.56-6.42,50.16v9.72c11.8-.46,19.55-1.04,23.26-1.74,1.62,0,2.43,1.39,2.43,4.17s-1.21,6.19-3.64,10.24c-2.43,4.05-5.44,6.13-9.03,6.25-3.59.12-8.04.06-13.37-.17-.47,17.59-.69,32.52-.69,44.78Z"/>
  </g>
  <path class="cls-1" d="M583.51,436.01c-4.15-1.89-6.5-6.54-5.3-11.18.75-2.9,2.9-5.23,5.64-6.45l8.95-3.97c.91-.4.59-1.78-.4-1.73-26.76,1.2-53.45,4.15-79.84,8.57-44.54,7.46-88.63,19.1-130.46,36.24-21.69,8.89-42.56,19.43-62.52,31.72l-1.03,1.85h0c0,1.57,1.62,2.6,3.04,1.95,24.49-11.16,50.14-19.99,75.84-27.27,42.94-12.16,87.2-19.89,131.7-23.28,13.01-.99,37.89-1.24,61.79-1.09,1.02,0,1.32-1.38.4-1.8l-7.8-3.56Z"/>
  <path class="cls-1" d="M639.78,399.6l21.37-48.79c.56-1.29,2.39-1.28,2.95,0l21.11,49.07c.93,2.15,2.62,3.88,4.75,4.85l48.04,21.93c1.26.58,1.25,2.37-.02,2.93l-48.12,21.36c-2.15.96-3.87,2.68-4.81,4.84l-21.37,48.79c-.56,1.29-2.39,1.28-2.95,0l-21.11-49.07c-.93-2.15-2.62-3.88-4.75-4.85l-48.04-21.93c-1.26-.58-1.25-2.37.02-2.93l48.12-21.36c2.15-.96,3.87-2.68,4.81-4.84Z"/>
</svg>