<svg width="94" height="65" viewBox="0 0 94 65" fill="none" xmlns="http://www.w3.org/2000/svg">
<path d="M84.916 46.0912L79.9997 43.8466L77.8369 38.8179C77.3962 37.7944 76.392 37.131 75.2777 37.1276H75.2686C74.2031 37.1276 73.2364 37.7331 72.7661 38.6816C72.765 38.6838 72.7627 38.685 72.7616 38.6872C72.4844 39.0791 72.3458 38.9644 72.5253 38.5157L72.5196 38.5214C73.2671 36.7653 73.6465 34.791 73.6465 32.6135L73.5488 31.0175C73.4659 29.7793 73.1001 28.4526 72.4322 26.9622C72.1755 26.3909 71.8778 25.8672 71.5405 25.3913C71.6188 25.364 71.6984 25.3379 71.7767 25.314L71.9233 25.2709L72.0641 25.2106C73.2375 24.7063 73.9668 23.6465 73.9668 22.4435C73.9668 21.8381 73.7567 20.3421 71.812 19.5288L71.6859 19.4765L71.0975 19.2993C69.9263 18.9472 68.4519 18.7768 66.5901 18.7768C63.4799 18.7768 60.8912 19.1494 58.7818 19.907C59.7859 17.8862 60.9412 15.8279 62.2475 13.7355L62.3429 13.5833L62.4167 13.4198C62.9949 12.1282 63.2891 10.6515 63.2891 9.03282C63.2891 4.75492 60.4118 4.53796 59.8348 4.53796H59.5996L58.9022 4.66519C57.94 4.77764 56.6689 4.83444 55.123 4.83558L47.6372 4.58908H47.5509C45.6414 4.58794 44.3351 4.68791 43.4468 4.9026C41.8156 5.26609 40.7297 6.64851 40.2185 9.0135C39.8959 10.505 39.738 12.5371 39.738 15.2247C39.738 15.4008 39.7482 15.5701 39.7664 15.7336C39.6437 15.7779 39.5199 15.8234 39.3938 15.8722C38.4237 16.2527 37.6229 16.6753 36.9675 17.1547C36.5165 16.0426 35.4067 15.1202 33.5461 15.1202C32.5112 15.1202 31.381 15.3656 30.0883 15.8722C28.799 16.3777 27.8097 16.957 27.0634 17.6454C26.1523 18.4848 25.6923 19.1255 25.4787 19.8548C25.347 20.3046 25.2777 20.7465 25.2743 21.169L25.1959 24.8949V25.1823C24.7836 25.3311 24.4201 25.5571 24.1202 25.8456C23.4432 25.3458 22.6696 24.9835 21.8074 24.7642C20.9146 24.537 20.2046 24.3951 19.6344 24.3269C19.0789 24.2622 18.3599 24.2303 17.4375 24.2303C16.3857 24.2303 15.2906 24.3894 14.1808 24.704C12.9768 25.0459 12.0578 25.4617 11.3751 25.9751C10.6515 26.5181 10.0529 27.2224 9.59625 28.0698C9.11462 28.9649 8.87039 29.852 8.87039 30.7085C8.87039 32.0455 9.38156 33.2507 10.313 34.1265C10.2051 34.2219 10.0995 34.3196 9.99496 34.4184C8.30697 36.0292 7.45049 38.1511 7.45049 40.7251C7.45049 41.4396 7.57771 42.2041 7.84011 43.064L7.88668 43.2037C8.15362 43.9318 8.50917 44.5997 8.94195 45.187C9.48947 45.9344 10.2608 46.5456 11.3001 47.0533C12.302 47.5441 13.4652 47.7928 14.7568 47.7928C16.1596 47.7928 17.5 47.3793 18.7427 46.5638C19.5265 47.2339 20.751 47.7542 22.6639 47.7542C23.1058 47.7542 23.5 47.7428 23.8555 47.7178C23.5181 48.8595 23.1739 49.5285 22.8911 49.9204L22.6571 50.2453L22.1993 51.6186V52.0423C22.1993 53.5167 23.3 55.0093 25.4038 55.0093H25.7071L26.626 54.7935C28.1334 54.488 29.6737 53.502 31.3322 51.7799C31.3935 51.7174 31.4548 51.6538 31.515 51.5879L31.5048 51.6175V52.0412C31.5048 53.2578 32.2545 54.4857 33.6972 54.8787L33.5711 55.1036V55.7818C33.5711 56.7575 34.0606 57.656 34.8819 58.1842C35.3522 58.4864 35.8872 58.6398 36.4256 58.6398C36.8278 58.6398 37.2333 58.5546 37.6138 58.3808C40.0561 57.2676 42.7527 56.2986 45.8572 55.4194C50.5179 54.0995 55.3774 53.2407 60.3028 52.867C61.5352 52.7738 64.015 52.7307 67.107 52.75C67.1126 52.75 67.1194 52.75 67.1251 52.75C67.6045 52.75 68.0623 52.6216 68.4598 52.3956L70.492 53.3236L72.6559 58.3524C73.0967 59.3747 74.1008 60.0381 75.2141 60.0415H75.2231C76.3329 60.0415 77.3371 59.3849 77.7835 58.3671L79.9702 53.3725L84.8887 51.1881C85.8917 50.7428 86.5449 49.7466 86.5506 48.6482C86.5562 47.5509 85.9156 46.5467 84.9171 46.0901L84.916 46.0912Z" fill="#4F0088" stroke="#4F0088" stroke-width="5.67962" stroke-linecap="round" stroke-linejoin="round"/>
<path d="M84.916 46.0912L79.9997 43.8466L77.8369 38.8179C77.3962 37.7944 76.392 37.131 75.2777 37.1276H75.2686C74.2031 37.1276 73.2364 37.7331 72.7661 38.6816C72.765 38.6838 72.7627 38.685 72.7616 38.6872C72.4844 39.0791 72.3458 38.9644 72.5253 38.5157L72.5196 38.5214C73.2671 36.7653 73.6465 34.791 73.6465 32.6135L73.5488 31.0175C73.4659 29.7793 73.1001 28.4526 72.4322 26.9622C72.1755 26.3909 71.8778 25.8672 71.5405 25.3913C71.6188 25.364 71.6984 25.3379 71.7767 25.314L71.9233 25.2709L72.0641 25.2106C73.2375 24.7063 73.9668 23.6465 73.9668 22.4435C73.9668 21.8381 73.7567 20.3421 71.812 19.5288L71.6859 19.4765L71.0975 19.2993C69.9263 18.9472 68.4519 18.7768 66.5901 18.7768C63.4799 18.7768 60.8912 19.1494 58.7818 19.907C59.7859 17.8862 60.9412 15.8279 62.2475 13.7355L62.3429 13.5833L62.4167 13.4198C62.9949 12.1282 63.2891 10.6515 63.2891 9.03282C63.2891 4.75492 60.4118 4.53796 59.8348 4.53796H59.5996L58.9022 4.66519C57.94 4.77764 56.6689 4.83444 55.123 4.83558L47.6372 4.58908H47.5509C45.6414 4.58794 44.3351 4.68791 43.4468 4.9026C41.8156 5.26609 40.7297 6.64851 40.2185 9.0135C39.8959 10.505 39.738 12.5371 39.738 15.2247C39.738 15.4008 39.7482 15.5701 39.7664 15.7336C39.6437 15.7779 39.5199 15.8234 39.3938 15.8722C38.4237 16.2527 37.6229 16.6753 36.9675 17.1547C36.5165 16.0426 35.4067 15.1202 33.5461 15.1202C32.5112 15.1202 31.381 15.3656 30.0883 15.8722C28.799 16.3777 27.8097 16.957 27.0634 17.6454C26.1523 18.4848 25.6923 19.1255 25.4787 19.8548C25.347 20.3046 25.2777 20.7465 25.2743 21.169L25.1959 24.8949V25.1823C24.7836 25.3311 24.4201 25.5571 24.1202 25.8456C23.4432 25.3458 22.6696 24.9835 21.8074 24.7642C20.9146 24.537 20.2046 24.3951 19.6344 24.3269C19.0789 24.2622 18.3599 24.2303 17.4375 24.2303C16.3857 24.2303 15.2906 24.3894 14.1808 24.704C12.9768 25.0459 12.0578 25.4617 11.3751 25.9751C10.6515 26.5181 10.0529 27.2224 9.59625 28.0698C9.11462 28.9649 8.87039 29.852 8.87039 30.7085C8.87039 32.0455 9.38156 33.2507 10.313 34.1265C10.2051 34.2219 10.0995 34.3196 9.99496 34.4184C8.30697 36.0292 7.45049 38.1511 7.45049 40.7251C7.45049 41.4396 7.57771 42.2041 7.84011 43.064L7.88668 43.2037C8.15362 43.9318 8.50917 44.5997 8.94195 45.187C9.48947 45.9344 10.2608 46.5456 11.3001 47.0533C12.302 47.5441 13.4652 47.7928 14.7568 47.7928C16.1596 47.7928 17.5 47.3793 18.7427 46.5638C19.5265 47.2339 20.751 47.7542 22.6639 47.7542C23.1058 47.7542 23.5 47.7428 23.8555 47.7178C23.5181 48.8595 23.1739 49.5285 22.8911 49.9204L22.6571 50.2453L22.1993 51.6186V52.0423C22.1993 53.5167 23.3 55.0093 25.4038 55.0093H25.7071L26.626 54.7935C28.1334 54.488 29.6737 53.502 31.3322 51.7799C31.3935 51.7174 31.4548 51.6538 31.515 51.5879L31.5048 51.6175V52.0412C31.5048 53.2578 32.2545 54.4857 33.6972 54.8787L33.5711 55.1036V55.7818C33.5711 56.7575 34.0606 57.656 34.8819 58.1842C35.3522 58.4864 35.8872 58.6398 36.4256 58.6398C36.8278 58.6398 37.2333 58.5546 37.6138 58.3808C40.0561 57.2676 42.7527 56.2986 45.8572 55.4194C50.5179 54.0995 55.3774 53.2407 60.3028 52.867C61.5352 52.7738 64.015 52.7307 67.107 52.75C67.1126 52.75 67.1194 52.75 67.1251 52.75C67.6045 52.75 68.0623 52.6216 68.4598 52.3956L70.492 53.3236L72.6559 58.3524C73.0967 59.3747 74.1008 60.0381 75.2141 60.0415H75.2231C76.3329 60.0415 77.3371 59.3849 77.7835 58.3671L79.9702 53.3725L84.8887 51.1881C85.8917 50.7428 86.5449 49.7466 86.5506 48.6482C86.5562 47.5509 85.9156 46.5467 84.9171 46.0901L84.916 46.0912Z" fill="#6B2EA1"/>
<path d="M47.5509 7.19948L55.0798 7.44711C56.7962 7.44711 58.2002 7.38123 59.2895 7.24946L59.8348 7.15063C60.3959 7.15063 60.6765 7.77766 60.6765 9.03286C60.6765 10.2881 60.4618 11.3944 60.0324 12.3509C54.154 21.762 51.2154 30.4632 51.2154 38.4533C51.2154 40.0061 51.3392 40.9966 51.5868 41.4249C51.8345 41.8543 51.9583 42.086 51.9583 42.1178C51.9583 42.7119 51.0495 43.0095 49.2343 43.0095C45.9981 43.0095 44.3805 42.3984 44.3805 41.1772C44.3805 36.6199 46.1889 30.9085 49.8046 24.0396C53.4202 17.1718 55.2286 13.4732 55.2286 12.945C55.2286 12.6814 55.0957 12.5167 54.8322 12.4497C53.7087 12.3838 52.7103 12.3509 51.8356 12.3509C50.9609 12.3509 49.9784 12.4588 48.889 12.6724C47.7997 12.8871 46.9398 13.1597 46.3139 13.4891C45.0587 14.1173 44.2658 14.6784 43.9364 15.1737L43.6887 15.5201C43.457 15.9166 43.2094 16.1142 42.9459 16.1142C42.5494 16.1142 42.3518 15.8166 42.3518 15.2225C42.3518 10.2699 42.9129 7.6777 44.0363 7.44598C44.6963 7.28127 45.8686 7.19834 47.5532 7.19834L47.5509 7.19948ZM58.6659 24.8245C57.8719 24.8552 57.2994 24.8779 56.9484 24.8938C56.5974 24.9097 56.4213 24.8245 56.4213 24.6416C56.4213 24.4587 56.5133 24.2747 56.6962 24.0918C58.65 22.2902 61.9487 21.3894 66.5901 21.3894C68.1781 21.3894 69.4299 21.5269 70.3466 21.8018L70.8044 21.9392C71.1713 22.0926 71.3542 22.2596 71.3542 22.4436C71.3542 22.5969 71.2463 22.7185 71.0338 22.8105C70.2092 23.0547 69.4152 23.4443 68.6518 23.9782C67.8885 24.5132 67.5068 24.887 67.5068 25.1005L67.7817 25.4208C68.7586 25.9706 69.514 26.8407 70.049 28.0323C70.5829 29.2239 70.8805 30.2769 70.9418 31.1936L71.0338 32.6135C71.0338 35.6373 70.1933 38.1262 68.5144 40.0799C66.8343 42.0349 64.5443 43.0118 61.6432 43.0118C60.1778 43.0118 58.909 42.7516 57.8412 42.2325C56.7723 41.7134 55.9863 41.1261 55.4819 40.4684C54.9776 39.8119 54.5732 39.0712 54.2676 38.2466C53.9007 37.1175 53.7178 35.9486 53.7178 34.7422C53.7178 33.5359 53.9234 32.3227 54.3358 31.1005C54.7481 29.8793 55.2206 28.9786 55.7557 28.3981C56.2895 27.8188 56.8927 27.344 57.5652 26.9782C58.4194 26.5204 59.1066 26.291 59.6269 26.291C60.1471 26.291 60.4061 26.3977 60.4061 26.6113L60.1312 27.0691C59.4588 27.8631 58.9783 28.9013 58.6886 30.1838C58.3978 31.4662 58.2536 32.6044 58.2536 33.5961C58.2536 34.5877 58.3751 35.5737 58.6205 36.5506C58.8647 37.5287 59.1396 38.2534 59.4451 38.7271C59.7496 39.2007 60.1017 39.5597 60.4982 39.8039C61.0775 40.1708 61.6897 40.3537 62.3304 40.3537C62.9711 40.3537 63.597 40.1015 64.2092 39.5983C64.8192 39.094 65.2622 38.4306 65.5371 37.6059C66.0869 36.0792 66.3618 34.5071 66.3618 32.8873C66.3618 30.3224 65.7132 28.3368 64.4148 26.9328C63.1165 25.5288 61.2002 24.8256 58.6659 24.8256V24.8245Z" fill="url(#paint0_linear_1776_1706)"/>
<path d="M23.9831 32.835L23.9048 37.8831C23.9048 41.3794 24.2853 43.4832 25.0486 44.192C25.1531 44.2976 25.2065 44.4158 25.2065 44.5464C25.2065 44.9406 24.3591 45.1382 22.6632 45.1382C20.9673 45.1382 20.0665 44.6395 19.962 43.6399C19.9358 43.4036 19.9222 42.9175 19.9222 42.1814L20.0801 35.8725C20.0801 35.6884 19.9745 35.5964 19.7643 35.5964C18.5023 35.5964 17.3198 35.9508 16.2157 36.6608C15.1116 37.3708 14.5595 38.2772 14.5595 39.3813C14.5595 39.9595 14.7174 40.4457 15.0332 40.8399C15.349 41.234 15.7363 41.4317 16.1964 41.4317C16.6564 41.4317 17.037 41.3397 17.3403 41.1557C17.6424 40.9716 17.8196 40.8671 17.873 40.8399C18.3194 40.8933 18.5432 41.359 18.5432 42.2393C18.5432 43.1197 18.1354 43.8308 17.3209 44.3692C16.5053 44.9076 15.6511 45.178 14.7583 45.178C13.8655 45.178 13.0953 45.0201 12.4512 44.7043C11.8072 44.3885 11.3403 44.0341 11.0518 43.6399C10.7621 43.2458 10.5258 42.7993 10.3418 42.2995C10.1578 41.6952 10.0658 41.1693 10.0658 40.7217C10.0658 38.8815 10.644 37.4094 11.8004 36.3053C12.9567 35.2011 14.4425 34.4128 16.2566 33.9391C18.6488 33.4654 19.8972 33.0327 20.0029 32.6374C20.0812 32.3488 20.121 31.8627 20.121 31.1788C20.121 29.7862 19.411 29.0887 17.9911 29.0887C17.3857 29.0887 16.8473 29.2796 16.3747 29.6601C15.901 30.0418 15.6648 30.5211 15.6648 31.0993L15.901 32.0455C15.8476 32.4931 15.3751 32.7555 14.4811 32.8339L14.0472 32.8736C13.2589 32.8736 12.6341 32.676 12.1741 32.2818C11.714 31.8876 11.4846 31.3617 11.4846 30.704C11.4846 30.2837 11.622 29.8169 11.898 29.3046C12.1741 28.7923 12.5217 28.3776 12.9431 28.0619C13.3634 27.7461 14.0143 27.4644 14.8946 27.2145C15.7749 26.9646 16.6223 26.8396 17.4379 26.8396C18.2535 26.8396 18.8828 26.8657 19.3304 26.918C19.7768 26.9714 20.3879 27.0952 21.1638 27.2928C21.9385 27.4905 22.5837 27.8642 23.096 28.4163C23.6083 28.9683 23.8843 29.5533 23.9241 30.1713C23.9638 30.7892 23.9831 31.6764 23.9831 32.8327V32.835Z" fill="#E0D7E0"/>
<path d="M31.5155 34.807L31.7131 42.6937C31.7131 44.3499 31.4961 45.8152 31.0622 47.0908C30.6283 48.3654 30.0967 49.3184 29.4651 49.95C28.177 51.2904 27.0456 52.0526 26.0744 52.2366L25.4042 52.3945C25.01 52.3945 24.8124 52.2763 24.8124 52.0401L25.01 51.4483C26.9286 48.7925 27.8884 42.2734 27.8884 31.8888C27.8884 30.9425 27.8748 30.2326 27.8487 29.7589C27.2966 29.7589 26.7446 29.7987 26.1925 29.8771H26.1528C25.8631 29.8771 25.7188 29.7328 25.7188 29.4431L25.837 27.9448C25.8631 27.7086 26.0471 27.5904 26.389 27.5904H27.8089V24.9483L27.8873 21.202C27.8873 21.018 27.9203 20.8146 27.9861 20.5909C28.052 20.3682 28.3349 20.0263 28.8335 19.5651C29.3322 19.1051 30.0694 18.6848 31.0418 18.3031C32.0141 17.9226 32.849 17.7318 33.5453 17.7318C34.2417 17.7318 34.5904 17.943 34.5904 18.3622C34.5904 18.5201 34.4723 18.6518 34.2349 18.7564C33.4726 18.9926 32.8479 19.6696 32.3617 20.7874C31.8755 21.9051 31.6325 23.8044 31.6325 26.4852V27.5893C32.9728 27.537 33.8532 27.4712 34.2746 27.3916C34.4586 27.3916 34.5506 27.5495 34.5506 27.8653C34.5506 28.1811 34.4132 28.5685 34.1372 29.0285C33.8611 29.4886 33.5192 29.7248 33.1114 29.7385C32.7036 29.7521 32.1981 29.7453 31.5927 29.7192C31.5393 31.7172 31.5143 33.4132 31.5143 34.8058L31.5155 34.807Z" fill="#E0D7E0"/>
<path d="M40.821 34.807L41.0187 42.6937C41.0187 44.3499 40.8017 45.8152 40.3678 47.0908C39.9339 48.3654 39.4023 49.3184 38.7707 49.95C37.4825 51.2904 36.3512 52.0526 35.3799 52.2366L34.7098 52.3945C34.3156 52.3945 34.1179 52.2763 34.1179 52.0401L34.3156 51.4483C36.2342 48.7925 37.194 42.2734 37.194 31.8888C37.194 30.9425 37.1804 30.2326 37.1543 29.7589C36.6022 29.7589 36.0501 29.7987 35.4981 29.8771H35.4583C35.1687 29.8771 35.0244 29.7328 35.0244 29.4431L35.1425 27.9448C35.1687 27.7086 35.3527 27.5904 35.6946 27.5904H37.1145V24.9483L37.1929 21.202C37.1929 21.018 37.2258 20.8146 37.2917 20.5909C37.3576 20.3682 37.6404 20.0263 38.1391 19.5651C38.6378 19.1051 39.375 18.6848 40.3473 18.3031C41.3197 17.9226 42.1546 17.7318 42.8509 17.7318C43.5472 17.7318 43.896 17.943 43.896 18.3622C43.896 18.5201 43.7778 18.6518 43.5404 18.7564C42.7782 18.9926 42.1535 19.6696 41.6673 20.7874C41.1811 21.9051 40.938 23.8044 40.938 26.4852V27.5893C42.2784 27.537 43.1588 27.4712 43.5802 27.3916C43.7642 27.3916 43.8562 27.5495 43.8562 27.8653C43.8562 28.1811 43.7188 28.5685 43.4427 29.0285C43.1667 29.4886 42.8248 29.7248 42.417 29.7385C42.0092 29.7521 41.5037 29.7453 40.8983 29.7192C40.8449 31.7172 40.8199 33.4132 40.8199 34.8058L40.821 34.807Z" fill="#E0D7E0"/>
<path d="M66.2823 49.5274C65.8109 49.3127 65.5439 48.7845 65.6802 48.2574C65.7654 47.928 66.0096 47.6633 66.3209 47.5248L67.3375 47.0738C67.4409 47.0284 67.4046 46.8716 67.2921 46.8773C64.2524 47.0136 61.2206 47.3487 58.2229 47.8508C53.1635 48.6982 48.1552 50.0204 43.4036 51.9674C40.9398 52.9772 38.5691 54.1745 36.3018 55.5705L36.1848 55.7807C36.1848 55.959 36.3688 56.076 36.5301 56.0022C39.312 54.7345 42.2257 53.7315 45.145 52.9045C50.0226 51.5232 55.0502 50.6451 60.1051 50.2601C61.5829 50.1476 64.4091 50.1192 67.124 50.1363C67.2398 50.1363 67.2739 49.9795 67.1694 49.9318L66.2834 49.5274H66.2823Z" fill="#F5CB86"/>
<path d="M72.6742 45.3915L75.1017 39.8493C75.1653 39.7028 75.3732 39.7039 75.4368 39.8493L77.8347 45.4233C77.9404 45.6675 78.1323 45.8641 78.3743 45.9742L83.8313 48.4653C83.9744 48.5312 83.9733 48.7345 83.829 48.7982L78.3629 51.2245C78.1187 51.3335 77.9233 51.5289 77.8166 51.7743L75.3891 57.3165C75.3255 57.463 75.1176 57.4618 75.054 57.3165L72.6561 51.7425C72.5504 51.4982 72.3584 51.3017 72.1165 51.1915L66.6595 48.7005C66.5164 48.6346 66.5175 48.4312 66.6618 48.3676L72.1278 45.9413C72.3721 45.8323 72.5675 45.6369 72.6742 45.3915Z" fill="#F5CB86"/>
<defs>
<linearGradient id="paint0_linear_1776_1706" x1="17.9328" y1="90.7422" x2="65.2316" y2="7.9242" gradientUnits="userSpaceOnUse">
<stop stop-color="#6B2EA1"/>
<stop offset="1" stop-color="#FF2EA1"/>
</linearGradient>
</defs>
</svg>
