<svg width="17" height="15" viewBox="0 0 17 15" fill="none" xmlns="http://www.w3.org/2000/svg">
<path d="M17 6.57837C17 10.1721 13.4062 13.0784 9 13.0784C7.8125 13.0784 6.71875 12.8909 5.71875 12.5471C5.375 12.7971 4.75 13.1721 4.03125 13.4846C3.28125 13.8284 2.375 14.0784 1.5 14.0784C1.28125 14.0784 1.09375 13.9846 1.03125 13.7971C0.9375 13.6096 1 13.3909 1.125 13.2346C1.15625 13.2346 1.15625 13.2034 1.1875 13.1721C1.21875 13.1409 1.28125 13.0784 1.34375 13.0159C1.46875 12.8596 1.625 12.6096 1.8125 12.3284C2.125 11.8284 2.40625 11.1409 2.46875 10.3596C1.53125 9.29712 1 8.01587 1 6.57837C1 3.01587 4.5625 0.0783691 9 0.0783691C13.4062 0.0783691 17 3.01587 17 6.57837Z" fill="currentColor"/>
</svg>
