<svg width="50" height="51" viewBox="0 0 50 51" fill="none" xmlns="http://www.w3.org/2000/svg">
<path d="M31 25.5784C31 27.0159 30.875 28.3284 30.75 29.5784H19.1875C19.0625 28.3284 19 27.0159 19 25.5784C19 24.2034 19.0625 22.8909 19.1875 21.5784H30.75C30.875 22.8909 31 24.2034 31 25.5784ZM32.75 21.5784H40.4375C40.8125 22.8909 41 24.2034 41 25.5784C41 27.0159 40.8125 28.3284 40.4375 29.5784H32.75C32.875 28.3284 33 26.9534 33 25.5784C33 24.2034 32.875 22.8909 32.75 21.5784ZM39.8125 19.5784H32.5C31.875 15.6409 30.625 12.2659 29.0625 10.1409C33.9375 11.4534 37.9375 14.9534 39.8125 19.5784ZM30.5 19.5784H19.4375C19.8125 17.3284 20.4375 15.3284 21.125 13.7034C21.8125 12.2034 22.5 11.1409 23.25 10.4534C23.9375 9.82843 24.5 9.57843 25 9.57843C25.4375 9.57843 26 9.82843 26.6875 10.4534C27.4375 11.1409 28.125 12.2034 28.8125 13.7034C29.5 15.3284 30.125 17.3284 30.5 19.5784ZM17.4375 19.5784H10.125C12 14.9534 16 11.4534 20.875 10.1409C19.3125 12.2659 18.0625 15.6409 17.4375 19.5784ZM9.5 21.5784H17.1875C17.0625 22.8909 17 24.2034 17 25.5784C17 26.9534 17.0625 28.3284 17.1875 29.5784H9.5C9.125 28.3284 9 27.0159 9 25.5784C9 24.2034 9.125 22.8909 9.5 21.5784ZM21.125 37.5159C20.4375 35.8909 19.8125 33.8909 19.4375 31.5784H30.5C30.125 33.8909 29.5 35.8909 28.8125 37.5159C28.125 39.0159 27.4375 40.0784 26.6875 40.7659C26 41.3909 25.4375 41.5784 25 41.5784C24.5 41.5784 23.9375 41.3909 23.25 40.7659C22.5 40.0784 21.8125 39.0159 21.125 37.5159ZM17.4375 31.5784C18.0625 35.5784 19.3125 38.9534 20.875 41.0784C16 39.7659 12 36.2659 10.125 31.5784H17.4375ZM39.8125 31.5784C37.9375 36.2659 33.9375 39.7659 29.0625 41.0784C30.6875 38.9534 31.875 35.5784 32.5 31.5784H39.8125Z" fill="white"/>
</svg>
