<svg width="50" height="51" viewBox="0 0 50 51" fill="none" xmlns="http://www.w3.org/2000/svg">
<path d="M16.3125 17.5784H21.9375C26.875 9.39093 34.5625 9.07843 39.1875 9.95343C39.9375 10.0784 40.5 10.6409 40.625 11.3909C41.5 16.0159 41.1875 23.7034 33 28.6409V34.2659C33 35.8284 32.125 37.3284 30.75 38.1409L25.25 41.3909C24.75 41.7034 24.1875 41.7034 23.75 41.3909C23.25 41.1409 23 40.6409 23 40.0784V32.9534C23 31.5159 22.4375 30.1409 21.4375 29.1409C20.4375 28.1409 19.0625 27.5784 17.625 27.5784H10.5C9.9375 27.5784 9.4375 27.3284 9.1875 26.8284C8.875 26.3909 8.875 25.8284 9.1875 25.3284L12.4375 19.8284C13.25 18.4534 14.75 17.5784 16.3125 17.5784ZM35.5 17.5784C35.5 16.2034 34.375 15.0784 33 15.0784C31.5625 15.0784 30.5 16.2034 30.5 17.5784C30.5 19.0159 31.5625 20.0784 33 20.0784C34.375 20.0784 35.5 19.0159 35.5 17.5784ZM19.375 38.9534C16.3125 42.0784 9 41.5784 9 41.5784C9 41.5784 8.5 34.2659 11.625 31.2034C13.75 29.0784 17.25 29.0784 19.375 31.2034C21.5 33.3284 21.5 36.8284 19.375 38.9534ZM16.4375 36.7034C17.1875 36.0159 17.1875 34.8284 16.4375 34.1409C15.75 33.3909 14.5625 33.3909 13.875 34.1409C12.8125 35.1409 13 37.5784 13 37.5784C13 37.5784 15.4375 37.7659 16.4375 36.7034Z" fill="white"/>
</svg>
