<svg width="50" height="51" viewBox="0 0 50 51" fill="none" xmlns="http://www.w3.org/2000/svg">
<path d="M11 11.5784C12.0625 11.5784 13 12.5159 13 13.5784V34.5784C13 35.1409 13.4375 35.5784 14 35.5784H39C40.0625 35.5784 41 36.5159 41 37.5784C41 38.7034 40.0625 39.5784 39 39.5784H14C11.1875 39.5784 9 37.3909 9 34.5784V13.5784C9 12.5159 9.875 11.5784 11 11.5784ZM19 23.5784C20.0625 23.5784 21 24.5159 21 25.5784V29.5784C21 30.7034 20.0625 31.5784 19 31.5784C17.875 31.5784 17 30.7034 17 29.5784V25.5784C17 24.5159 17.875 23.5784 19 23.5784ZM27 19.5784V23.5784C27 24.7034 26.0625 25.5784 25 25.5784C23.875 25.5784 23 24.7034 23 23.5784V19.5784C23 18.5159 23.875 17.5784 25 17.5784C26.0625 17.5784 27 18.5159 27 19.5784ZM31 13.5784C32.0625 13.5784 33 14.5159 33 15.5784V19.5784C33 20.7034 32.0625 21.5784 31 21.5784C29.875 21.5784 29 20.7034 29 19.5784V15.5784C29 14.5159 29.875 13.5784 31 13.5784ZM39 15.5784V29.5784C39 30.7034 38.0625 31.5784 37 31.5784C35.875 31.5784 35 30.7034 35 29.5784V15.5784C35 14.5159 35.875 13.5784 37 13.5784C38.0625 13.5784 39 14.5159 39 15.5784Z" fill="white"/>
</svg>
