<svg width="50" height="51" viewBox="0 0 50 51" fill="none" xmlns="http://www.w3.org/2000/svg">
<path d="M29.9375 24.8909L31.875 22.9534L33.6875 23.2659C33.875 24.0159 34 24.7659 34 25.5784C34 30.5784 29.9375 34.5784 25 34.5784C20 34.5784 16 30.5784 16 25.5784C16 20.6409 20 16.5784 25 16.5784C25.8125 16.5784 26.5625 16.7034 27.3125 16.8909L27.625 18.7034L25.6875 20.6409C25.4375 20.6409 25.1875 20.5784 25 20.5784C22.1875 20.5784 20 22.8284 20 25.5784C20 28.3909 22.1875 30.5784 25 30.5784C27.75 30.5784 30 28.3909 30 25.5784C30 25.3909 29.9375 25.1409 29.9375 24.8909ZM36.8125 23.5784L37.375 23.0159L40.0625 20.3284C40.6875 21.9534 41 23.7659 41 25.5784C41 34.4534 33.8125 41.5784 25 41.5784C16.125 41.5784 9 34.4534 9 25.5784C9 16.7659 16.125 9.57837 25 9.57837C26.8125 9.57837 28.625 9.89087 30.25 10.5159L27.5625 13.2034L27 13.7659C26.3125 13.6409 25.625 13.5784 25 13.5784C18.375 13.5784 13 18.9534 13 25.5784C13 32.2034 18.375 37.5784 25 37.5784C31.625 37.5784 37 32.2034 37 25.5784C37 24.8909 36.9375 24.2659 36.8125 23.5784ZM31.8125 20.8909L26 26.6409C25.4375 27.2659 24.5 27.2659 23.9375 26.6409C23.3125 26.0784 23.3125 25.1409 23.9375 24.5159L29.6875 18.7659L29.125 15.6409C29.0625 15.0159 29.25 14.3284 29.6875 13.8909L32.875 10.7034C33.4375 10.1409 34.25 10.3284 34.5625 11.0159L36 14.5784L39.5625 16.0159C40.25 16.3284 40.4375 17.1409 39.875 17.7034L36.6875 20.8909C36.25 21.3284 35.625 21.5159 34.9375 21.4534L31.8125 20.8909Z" fill="white"/>
</svg>
