<svg width="50" height="51" viewBox="0 0 50 51" fill="none" xmlns="http://www.w3.org/2000/svg">
<path d="M13 15.5784V19.5784C13 20.7034 12.0625 21.5784 11 21.5784C9.875 21.5784 9 20.7034 9 19.5784V15.5784C9 12.2659 11.6875 9.57837 15 9.57837H43C46.3125 9.57837 49 12.2659 49 15.5784V19.5784C49 20.7034 48.0625 21.5784 47 21.5784C45.875 21.5784 45 20.7034 45 19.5784V15.5784C45 14.5159 44.0625 13.5784 43 13.5784H15C13.875 13.5784 13 14.5159 13 15.5784ZM17 15.5784H41V37.5784C41 39.8284 39.1875 41.5784 37 41.5784H21C18.75 41.5784 17 39.8284 17 37.5784V15.5784ZM25 37.5784C25 35.3909 23.1875 33.5784 21 33.5784V37.5784H25ZM37 33.5784C34.75 33.5784 33 35.3909 33 37.5784H37V33.5784ZM29 31.5784C32.3125 31.5784 35 29.3909 35 26.5784C35 23.8284 32.3125 21.5784 29 21.5784C25.6875 21.5784 23 23.8284 23 26.5784C23 29.3909 25.6875 31.5784 29 31.5784Z" fill="white"/>
</svg>
