<svg width="50" height="51" viewBox="0 0 50 51" fill="none" xmlns="http://www.w3.org/2000/svg">
<path d="M25 13.5784V17.5784H33V13.5784H25ZM24 9.57837H34C35.625 9.57837 37 10.9534 37 12.5784V18.5784C37 20.2659 35.625 21.5784 34 21.5784H31V23.5784H47C48.0625 23.5784 49 24.5159 49 25.5784C49 26.7034 48.0625 27.5784 47 27.5784H41V29.5784H44C45.625 29.5784 47 30.9534 47 32.5784V38.5784C47 40.2659 45.625 41.5784 44 41.5784H34C32.3125 41.5784 31 40.2659 31 38.5784V32.5784C31 30.9534 32.3125 29.5784 34 29.5784H37V27.5784H21V29.5784H24C25.625 29.5784 27 30.9534 27 32.5784V38.5784C27 40.2659 25.625 41.5784 24 41.5784H14C12.3125 41.5784 11 40.2659 11 38.5784V32.5784C11 30.9534 12.3125 29.5784 14 29.5784H17V27.5784H11C9.875 27.5784 9 26.7034 9 25.5784C9 24.5159 9.875 23.5784 11 23.5784H27V21.5784H24C22.3125 21.5784 21 20.2659 21 18.5784V12.5784C21 10.9534 22.3125 9.57837 24 9.57837ZM15 37.5784H23V33.5784H15V37.5784ZM35 33.5784V37.5784H43V33.5784H35Z" fill="white"/>
</svg>
